<mxfile host="app.diagrams.net" modified="2023-05-08T17:49:58.642Z" agent="Mozilla/5.0 (Windows NT 10.0; Win64; x64) AppleWebKit/537.36 (KHTML, like Gecko) Chrome/112.0.0.0 Safari/537.36" etag="qLvFkDIbhPpu8AQCHfJf" version="21.2.9" type="github">
  <diagram id="R2lEEEUBdFMjLlhIrx00" name="Page-1">
    <mxGraphModel dx="2564" dy="948" grid="1" gridSize="10" guides="1" tooltips="1" connect="1" arrows="1" fold="1" page="1" pageScale="1" pageWidth="850" pageHeight="1100" math="0" shadow="0" extFonts="Permanent Marker^https://fonts.googleapis.com/css?family=Permanent+Marker">
      <root>
        <mxCell id="0" />
        <mxCell id="1" parent="0" />
        <mxCell id="rEFRAy4-1CESUTY88mNT-4" style="edgeStyle=orthogonalEdgeStyle;rounded=0;orthogonalLoop=1;jettySize=auto;html=1;entryX=0.5;entryY=0;entryDx=0;entryDy=0;endArrow=none;endFill=0;" edge="1" parent="1" source="rEFRAy4-1CESUTY88mNT-1" target="rEFRAy4-1CESUTY88mNT-2">
          <mxGeometry relative="1" as="geometry" />
        </mxCell>
        <mxCell id="rEFRAy4-1CESUTY88mNT-5" style="edgeStyle=orthogonalEdgeStyle;rounded=0;orthogonalLoop=1;jettySize=auto;html=1;exitX=0;exitY=1;exitDx=0;exitDy=0;entryX=0.5;entryY=0;entryDx=0;entryDy=0;endArrow=none;endFill=0;" edge="1" parent="1" source="rEFRAy4-1CESUTY88mNT-1" target="rEFRAy4-1CESUTY88mNT-3">
          <mxGeometry relative="1" as="geometry" />
        </mxCell>
        <mxCell id="rEFRAy4-1CESUTY88mNT-9" style="edgeStyle=orthogonalEdgeStyle;rounded=0;orthogonalLoop=1;jettySize=auto;html=1;exitX=1;exitY=1;exitDx=0;exitDy=0;entryX=0.5;entryY=0;entryDx=0;entryDy=0;endArrow=none;endFill=0;" edge="1" parent="1" source="rEFRAy4-1CESUTY88mNT-28" target="rEFRAy4-1CESUTY88mNT-6">
          <mxGeometry relative="1" as="geometry" />
        </mxCell>
        <mxCell id="rEFRAy4-1CESUTY88mNT-12" style="edgeStyle=orthogonalEdgeStyle;rounded=0;orthogonalLoop=1;jettySize=auto;html=1;exitX=0.5;exitY=1;exitDx=0;exitDy=0;entryX=0.5;entryY=0;entryDx=0;entryDy=0;endArrow=none;endFill=0;" edge="1" parent="1" source="rEFRAy4-1CESUTY88mNT-1" target="rEFRAy4-1CESUTY88mNT-11">
          <mxGeometry relative="1" as="geometry" />
        </mxCell>
        <mxCell id="rEFRAy4-1CESUTY88mNT-23" style="edgeStyle=orthogonalEdgeStyle;rounded=0;orthogonalLoop=1;jettySize=auto;html=1;entryX=0;entryY=0.5;entryDx=0;entryDy=0;endArrow=none;endFill=0;" edge="1" parent="1" source="rEFRAy4-1CESUTY88mNT-1" target="rEFRAy4-1CESUTY88mNT-22">
          <mxGeometry relative="1" as="geometry" />
        </mxCell>
        <mxCell id="rEFRAy4-1CESUTY88mNT-1" value="Cliente" style="rounded=0;whiteSpace=wrap;html=1;" vertex="1" parent="1">
          <mxGeometry x="-70" y="60" width="120" height="60" as="geometry" />
        </mxCell>
        <mxCell id="rEFRAy4-1CESUTY88mNT-2" value="cliNome" style="ellipse;whiteSpace=wrap;html=1;align=center;" vertex="1" parent="1">
          <mxGeometry x="-70" y="200" width="100" height="40" as="geometry" />
        </mxCell>
        <mxCell id="rEFRAy4-1CESUTY88mNT-3" value="cliCod" style="ellipse;whiteSpace=wrap;html=1;align=center;fontStyle=4;" vertex="1" parent="1">
          <mxGeometry x="-150" y="150" width="100" height="40" as="geometry" />
        </mxCell>
        <mxCell id="rEFRAy4-1CESUTY88mNT-6" value="cliCPF" style="ellipse;whiteSpace=wrap;html=1;align=center;" vertex="1" parent="1">
          <mxGeometry x="70" y="140" width="100" height="40" as="geometry" />
        </mxCell>
        <mxCell id="rEFRAy4-1CESUTY88mNT-11" value="cliRG" style="ellipse;whiteSpace=wrap;html=1;align=center;" vertex="1" parent="1">
          <mxGeometry x="20" y="180" width="100" height="40" as="geometry" />
        </mxCell>
        <mxCell id="rEFRAy4-1CESUTY88mNT-16" style="edgeStyle=orthogonalEdgeStyle;rounded=0;orthogonalLoop=1;jettySize=auto;html=1;entryX=0;entryY=0.5;entryDx=0;entryDy=0;endArrow=none;endFill=0;" edge="1" parent="1" source="rEFRAy4-1CESUTY88mNT-14" target="rEFRAy4-1CESUTY88mNT-1">
          <mxGeometry relative="1" as="geometry" />
        </mxCell>
        <mxCell id="rEFRAy4-1CESUTY88mNT-14" value="cliDataNasc" style="ellipse;whiteSpace=wrap;html=1;align=center;" vertex="1" parent="1">
          <mxGeometry x="-230" y="70" width="100" height="40" as="geometry" />
        </mxCell>
        <mxCell id="rEFRAy4-1CESUTY88mNT-18" style="edgeStyle=orthogonalEdgeStyle;rounded=0;orthogonalLoop=1;jettySize=auto;html=1;entryX=0;entryY=0.25;entryDx=0;entryDy=0;endArrow=none;endFill=0;" edge="1" parent="1" source="rEFRAy4-1CESUTY88mNT-17" target="rEFRAy4-1CESUTY88mNT-1">
          <mxGeometry relative="1" as="geometry" />
        </mxCell>
        <mxCell id="rEFRAy4-1CESUTY88mNT-17" value="cliDataCad" style="ellipse;whiteSpace=wrap;html=1;align=center;" vertex="1" parent="1">
          <mxGeometry x="-210" y="20" width="100" height="40" as="geometry" />
        </mxCell>
        <mxCell id="rEFRAy4-1CESUTY88mNT-20" value="Pedido" style="whiteSpace=wrap;html=1;align=center;" vertex="1" parent="1">
          <mxGeometry x="360" y="65" width="110" height="50" as="geometry" />
        </mxCell>
        <mxCell id="rEFRAy4-1CESUTY88mNT-24" style="edgeStyle=orthogonalEdgeStyle;rounded=0;orthogonalLoop=1;jettySize=auto;html=1;entryX=0;entryY=0.5;entryDx=0;entryDy=0;endArrow=none;endFill=0;" edge="1" parent="1" source="rEFRAy4-1CESUTY88mNT-22" target="rEFRAy4-1CESUTY88mNT-20">
          <mxGeometry relative="1" as="geometry" />
        </mxCell>
        <mxCell id="rEFRAy4-1CESUTY88mNT-22" value="Faz" style="shape=rhombus;perimeter=rhombusPerimeter;whiteSpace=wrap;html=1;align=center;" vertex="1" parent="1">
          <mxGeometry x="140" y="60" width="120" height="60" as="geometry" />
        </mxCell>
        <mxCell id="rEFRAy4-1CESUTY88mNT-25" value="1" style="text;html=1;strokeColor=none;fillColor=none;align=center;verticalAlign=middle;whiteSpace=wrap;rounded=0;" vertex="1" parent="1">
          <mxGeometry x="50" y="61" width="60" height="30" as="geometry" />
        </mxCell>
        <mxCell id="rEFRAy4-1CESUTY88mNT-26" value="*,n" style="text;html=1;strokeColor=none;fillColor=none;align=center;verticalAlign=middle;whiteSpace=wrap;rounded=0;" vertex="1" parent="1">
          <mxGeometry x="305" y="61" width="60" height="30" as="geometry" />
        </mxCell>
        <mxCell id="rEFRAy4-1CESUTY88mNT-27" value="1" style="text;html=1;strokeColor=none;fillColor=none;align=center;verticalAlign=middle;whiteSpace=wrap;rounded=0;" vertex="1" parent="1">
          <mxGeometry x="300" y="85" width="60" height="30" as="geometry" />
        </mxCell>
        <mxCell id="rEFRAy4-1CESUTY88mNT-29" value="" style="edgeStyle=orthogonalEdgeStyle;rounded=0;orthogonalLoop=1;jettySize=auto;html=1;exitX=1;exitY=1;exitDx=0;exitDy=0;entryX=0.5;entryY=0;entryDx=0;entryDy=0;endArrow=none;endFill=0;" edge="1" parent="1" source="rEFRAy4-1CESUTY88mNT-1" target="rEFRAy4-1CESUTY88mNT-28">
          <mxGeometry relative="1" as="geometry">
            <mxPoint x="50" y="120" as="sourcePoint" />
            <mxPoint x="120" y="140" as="targetPoint" />
          </mxGeometry>
        </mxCell>
        <mxCell id="rEFRAy4-1CESUTY88mNT-28" value="1" style="text;html=1;strokeColor=none;fillColor=none;align=center;verticalAlign=middle;whiteSpace=wrap;rounded=0;" vertex="1" parent="1">
          <mxGeometry x="50" y="90" width="60" height="30" as="geometry" />
        </mxCell>
      </root>
    </mxGraphModel>
  </diagram>
</mxfile>
